<?xml version="1.0" standalone="no"?>
<!DOCTYPE svg PUBLIC "-//W3C//DTD SVG 20010904//EN"
 "http://www.w3.org/TR/2001/REC-SVG-20010904/DTD/svg10.dtd">
<svg version="1.0" xmlns="http://www.w3.org/2000/svg"
 width="700.000000pt" height="700.000000pt" viewBox="0 0 700.000000 700.000000"
 preserveAspectRatio="xMidYMid meet">
<metadata>
Created by potrace 1.11, written by Peter Selinger 2001-2013
</metadata>
<g transform="translate(0.000000,700.000000) scale(0.100000,-0.100000)"
fill="#000000" stroke="none">
<path d="M0 3500 l0 -3500 3500 0 3500 0 0 3500 0 3500 -3500 0 -3500 0 0
-3500z m3484 2104 c380 -75 695 -140 700 -145 5 -4 22 -223 39 -486 16 -263
31 -479 32 -481 2 -2 199 47 439 109 240 62 438 110 441 108 15 -16 633 -1335
627 -1340 -4 -3 -215 -41 -470 -84 -254 -43 -461 -82 -460 -86 3 -6 588 -682
780 -900 l68 -77 -526 -482 c-290 -265 -529 -478 -533 -473 -473 727 -767
1171 -773 1165 -3 -4 -139 -263 -301 -577 -162 -314 -296 -570 -299 -570 -5 0
-1502 1138 -1527 1160 -11 11 63 99 414 496 l427 483 -49 17 c-295 103 -1277
450 -1280 453 -9 9 550 1387 561 1382 6 -2 261 -132 566 -288 418 -214 556
-280 558 -269 2 15 -121 930 -134 994 -3 15 -2 27 2 27 4 0 318 -61 698 -136z"/>
</g>
</svg>
