<svg xmlns="http://www.w3.org/2000/svg" viewBox="0 0 332.26 97.21"><defs><style>.cls-1{fill:#e91e63;}.cls-2{fill:#424242;}</style></defs><title>narin_logo</title><g id="Layer_2" data-name="Layer 2"><g id="레이어_2" data-name="레이어 2"><polygon class="cls-1" points="36.82 22.62 33.69 0 64.28 6.04 65.59 27.2 84.7 22.28 98.54 51.47 77.97 55 96.51 76.32 73.71 97.21 56.9 71.48 43.86 96.74 10.4 71.24 28.93 50.24 0 40.08 12.04 9.98 36.82 22.62"/><path class="cls-2" d="M124.89,49.17V76.28H109.75V21.14h11.81l22.13,28v-28h15.15V76.28h-12Z"/><path class="cls-2" d="M179.49,21.14h13.82l19.11,55.14H197L193.7,65.48H179l-3.26,10.79H160.31Zm11.8,34.25L186.4,38.3l-5.13,17.09Z"/><path class="cls-2" d="M213.9,76.28V21.14h25.32a16.77,16.77,0,0,1,7.46,1.67,19.38,19.38,0,0,1,5.86,4.35,20.31,20.31,0,0,1,3.84,6.14,18.41,18.41,0,0,1,1.4,7,19.62,19.62,0,0,1-2.1,9,18.28,18.28,0,0,1-5.83,6.8L261.5,76.28H244.42l-9.71-16.93H229V76.28ZM229,46.15h9.55a3.35,3.35,0,0,0,2.6-1.55,7,7,0,0,0,1.2-4.35,6.25,6.25,0,0,0-1.4-4.39,3.92,3.92,0,0,0-2.8-1.51H229Z"/><path class="cls-2" d="M263.21,76.28V21.14h15.15V76.28Z"/><path class="cls-2" d="M298.32,49.17V76.28H283.17V21.14H295l22.13,28v-28h15.14V76.28h-12Z"/></g></g></svg>